# xmcd CD database file
#
# Track frame offsets:
#	150
#	15004
#	32736
#	47666
#
# Disc length: 772 seconds
#
# Revision: 7
# Processed by: cddbd v1.5.1PL2 Copyright (c) Steve Scherf et al.
# Submitted via: CDex 1.50
#
DISCID=1f030204
DTITLE=RIP SLYME - Hey,Brother
DYEAR=2006
DGENRE=General Hip Hop
TTITLE0=Hey,Brother
TTITLE1=Hey,Brother (poetry reading)
TTITLE2=Hey,Brother (instrumental〜RIP SLYME version)
TTITLE3=ツーリング・ハート (from 間宮兄弟 OST)
EXTD=YEAR: 2006
EXTT0=
EXTT1=
EXTT2=
EXTT3=
PLAYORDER=
